#!OML:ASF E:\motion texture\Top Level 1\Subject 1\Session 1\male.ASF
:FULLY-SPECIFIED
:DEGREES
405
root -24.2414 18.2112 3.14117 829.242 -77.6625 -826.726
lowerback 2.82134 2.80296 10.328
upperback -1.55526 4.13668 3.56562
thorax -2.74675 1.8363 -2.24614
lowerneck -18.9611 -5.44836 -6.8042
upperneck 13.1197 -6.86584 7.19545
head 7.6362 -2.95806 2.6406
rclavicle 2.44707e-014 1.50082e-014
rhumerus -11.9183 14.4871 -89.102
rradius 76.5474
rwrist -0.997825
rhand -11.6749 -8.0273
rfingers 7.12502
rthumb 14.3702 -37.5099
lclavicle 2.44707e-014 1.50082e-014
lhumerus -48.5704 -5.04591 84.4993
lradius 53.8744
lwrist -1.92377
lhand -9.83066 2.07026
lfingers 7.12502
lthumb 16.1467 31.4177
rfemur 5.7455 6.30774 37.9703
rtibia 20.8522
rfoot 712.177 -5.14776
rtoes -2.90597
lfemur -69.7 11.1533 -10.5784
ltibia 77.2287
lfoot 555.263 173.114
ltoes -6.79811
406
root -24.4001 18.1802 3.15112 831.054 -77.5934 -828.263
lowerback 2.45888 2.85445 10.3032
upperback -1.6444 4.16006 3.52463
thorax -2.63125 1.85085 -2.25781
lowerneck -18.8789 -5.36935 -6.75919
upperneck 13.1607 -6.77899 7.19683
head 7.628 -2.91607 2.64656
rclavicle -1.02852e-014 6.74874e-014
rhumerus -12.6353 14.7006 -89.2572
rradius 76.1642
rwrist -1.01712
rhand -11.7141 -8.13714
rfingers 7.12502
rthumb 14.3325 -37.6224
lclavicle -1.02852e-014 6.74874e-014
lhumerus -48.3855 -4.94695 84.751
lradius 53.9488
lwrist -1.82284
lhand -9.73508 2.33017
lfingers 7.12502
lthumb 16.2387 31.6701
rfemur 6.1284 6.45631 37.8359
rtibia 20.731
rfoot 711.88 -4.92219
rtoes -3.34789
lfemur -67.7117 11.5791 -10.4247
ltibia 74.3713
lfoot 556.169 173.149
ltoes -6.48009
407
root -24.5625 18.1476 3.16159 832.795 -77.5243 -829.72
lowerback 2.07099 2.89488 10.2731
upperback -1.74791 4.16623 3.48358
thorax -2.51875 1.85625 -2.26486
lowerneck -18.7824 -5.28396 -6.70035
upperneck 13.2179 -6.68743 7.18915
head 7.62155 -2.8722 2.64805
rclavicle -8.30819e-015 -1.25234e-014
rhumerus -13.4187 14.9086 -89.4358
rradius 75.761
rwrist -1.05168
rhand -11.7459 -8.25208
rfingers 7.12502
rthumb 14.3019 -37.7395
lclavicle -8.30819e-015 -1.25234e-014
lhumerus -48.2111 -4.83709 85.025
lradius 54.0413
lwrist -1.68989
lhand -9.64378 2.58318
lfingers 7.12502
lthumb 16.3267 31.9159
rfemur 6.51062 6.57317 37.6853
rtibia 20.6136
rfoot 711.588 -4.70371
rtoes -3.83871
lfemur -65.6257 11.9316 -10.2332
ltibia 71.5146
lfoot 556.863 173.439
ltoes -6.1107
408
root -24.7289 18.1134 3.17272 834.465 -77.454 -831.096
lowerback 1.65005 2.92551 10.2428
upperback -1.8605 4.15539 3.44345
thorax -2.39908 1.85305 -2.26886
lowerneck -18.685 -5.1955 -6.63281
upperneck 13.2954 -6.59427 7.17552
head 7.62103 -2.82753 2.64631
rclavicle -2.69884e-014 -3.762e-014
rhumerus -14.2607 15.1096 -89.6301
rradius 75.3366
rwrist -1.10208
rhand -11.7699 -8.35562
rfingers 7.12502
rthumb 14.2788 -37.8447
lclavicle -2.69884e-014 -3.762e-014
lhumerus -48.0332 -4.72178 85.3272
lradius 54.1468
lwrist -1.53485
lhand -9.59779 2.77646
lfingers 7.12502
lthumb 16.3709 32.1055
rfemur 6.88525 6.65457 37.5168
rtibia 20.5106
rfoot 711.315 -4.48114
rtoes -4.38461
lfemur -63.4463 12.1877 -9.99108
ltibia 68.6621
lfoot 557.394 173.815
ltoes -5.75358
409
root -24.8996 18.0777 3.18494 836.083 -77.397 -832.411
lowerback 1.19351 2.94673 10.201
upperback -1.98346 4.1277 3.3999
thorax -2.27258 1.84152 -2.26821
lowerneck -18.6005 -5.10463 -6.56785
upperneck 13.4122 -6.50066 7.17119
head 7.63618 -2.78135 2.64789
rclavicle 1.65e-014 4.84538e-015
rhumerus -15.1591 15.3082 -89.8345
rradius 74.8848
rwrist -1.16494
rhand -11.7568 -8.48017
rfingers 7.12502
rthumb 14.2914 -37.9684
lclavicle 1.65e-014 4.84538e-015
lhumerus -47.8502 -4.60795 85.662
lradius 54.2681
lwrist -1.36857
lhand -9.6188 2.90017
lfingers 7.12502
lthumb 16.3507 32.2309
rfemur 7.23754 6.69801 37.3073
rtibia 20.4381
rfoot 711.071 -4.24059
rtoes -4.93661
lfemur -61.1858 12.3174 -9.71202
ltibia 65.8223
lfoot 557.816 174.151
ltoes -5.46606
410
root -25.0754 18.0409 3.19824 837.663 -77.3624 -833.692
lowerback 0.702348 2.95953 10.1383
upperback -2.11036 4.08421 3.35185
thorax -2.13345 1.82282 -2.2591
lowerneck -18.5214 -5.01195 -6.51707
upperneck 13.5614 -6.40719 7.19038
head 7.66433 -2.73346 2.65949
rclavicle -3.18374e-014 -3.75206e-015
rhumerus -16.1257 15.4984 -90.0456
rradius 74.4094
rwrist -1.22784
rhand -11.7053 -8.62843
rfingers 7.12502
rthumb 14.341 -38.1131
lclavicle -3.18374e-014 -3.75206e-015
lhumerus -47.6586 -4.50109 86.0374
lradius 54.4035
lwrist -1.21254
lhand -9.71345 2.94811
lfingers 7.12502
lthumb 16.2596 32.2863
rfemur 7.57615 6.70745 37.0455
rtibia 20.4119
rfoot 710.869 -3.97809
rtoes -5.49861
lfemur -58.8356 12.3031 -9.4094
ltibia 63.0034
lfoot 558.178 174.369
ltoes -5.2708
411
root -25.258 18.0035 3.21321 839.373 -77.342 -835.122
lowerback 0.173113 2.9757 10.0511
upperback -2.2302 4.03964 3.29661
thorax -1.96658 1.80533 -2.24215
lowerneck -18.454 -4.91818 -6.47475
upperneck 13.7425 -6.31492 7.22699
head 7.70604 -2.68452 2.67799
rclavicle 2.0536e-014 4.76586e-014
rhumerus -17.1529 15.6881 -90.2548
rradius 73.9034
rwrist -1.2868
rhand -11.6189 -8.79955
rfingers 7.12502
rthumb 14.4242 -38.2783
lclavicle 2.0536e-014 4.76586e-014
lhumerus -47.4446 -4.40498 86.4554
lradius 54.5524
lwrist -1.08641
lhand -9.77991 3.03816
lfingers 7.12502
lthumb 16.1956 32.3816
rfemur 7.90091 6.70397 36.7116
rtibia 20.4659
rfoot 710.715 -3.66416
rtoes -6.10988
lfemur -56.3657 12.1564 -9.09398
ltibia 60.1914
lfoot 558.521 174.5
ltoes -5.13803
412
root -25.4478 17.9661 3.22995 841.158 -77.3409 -836.673
lowerback -0.369326 2.99183 9.93924
upperback -2.33874 3.99326 3.23403
thorax -1.7817 1.78838 -2.21875
lowerneck -18.3913 -4.82866 -6.4395
upperneck 13.9517 -6.23076 7.27528
head 7.75908 -2.63849 2.70053
rclavicle -2.71291e-015 -1.31571e-014
rhumerus -18.2611 15.8524 -90.4622
rradius 73.3759
rwrist -1.3201
rhand -11.5066 -8.98346
rfingers 7.12502
rthumb 14.5324 -38.4545
lclavicle -2.71291e-015 -1.31571e-014
lhumerus -47.212 -4.33663 86.9264
lradius 54.7216
lwrist -0.994007
lhand -9.8348 3.14077
lfingers 7.12502
lthumb 16.1427 32.4885
rfemur 8.22747 6.67969 36.2995
rtibia 20.6178
rfoot 710.622 -3.2909
rtoes -6.69033
lfemur -53.7457 11.8521 -8.7788
ltibia 57.3862
lfoot 558.8 174.585
ltoes -5.22659
413
root -25.6442 17.929 3.24822 843.015 -77.3529 -838.343
lowerback -0.918534 3.00706 9.80298
upperback -2.43739 3.94543 3.16693
thorax -1.58408 1.77178 -2.18655
lowerneck -18.3149 -4.74326 -6.40281
upperneck 14.1714 -6.15535 7.32739
head 7.81401 -2.59652 2.72328
rclavicle 1.87393e-014 -1.15295e-014
rhumerus -19.4439 15.9948 -90.6656
rradius 72.8139
rwrist -1.32942
rhand -11.3973 -9.17349
rfingers 7.12502
rthumb 14.6377 -38.6369
lclavicle 1.87393e-014 -1.15295e-014
lhumerus -46.9577 -4.30114 87.4527
lradius 54.9205
lwrist -0.939444
lhand -9.88251 3.23458
lfingers 7.12502
lthumb 16.0968 32.586
rfemur 8.52968 6.63531 35.8145
rtibia 20.9189
rfoot 710.596 -2.85479
rtoes -7.32733
lfemur -50.9778 11.3874 -8.47619
ltibia 54.598
lfoot 558.695 174.612
ltoes -5.90148
414
root -25.8467 17.8923 3.26828 844.949 -77.3569 -840.137
lowerback -1.46699 3.02509 9.66168
upperback -2.53018 3.90248 3.10024
thorax -1.38068 1.75773 -2.15141
lowerneck -18.2025 -4.66434 -6.36482
upperneck 14.3877 -6.09122 7.3777
head 7.86232 -2.561 2.7443
rclavicle -5.22509e-015 6.72141e-015
rhumerus -20.715 16.1164 -90.8599
rradius 72.2317
rwrist -1.31787
rhand -11.2998 -9.35406
rfingers 7.12502
rthumb 14.7317 -38.8106
lclavicle -5.22509e-015 6.72141e-015
lhumerus -46.6884 -4.30637 88.0388
lradius 55.1666
lwrist -0.907109
lhand -9.94405 3.25984
lfingers 7.12502
lthumb 16.0375 32.6161
rfemur 8.77522 6.57274 35.2653
rtibia 21.4185
rfoot 710.655 -2.3328
rtoes -7.93973
lfemur -48.074 10.7966 -8.21087
ltibia 51.8616
lfoot 557.764 174.345
ltoes -6.62773
415
root -26.0535 17.8559 3.29026 846.826 -77.3657 -841.905
lowerback -2.00603 3.03307 9.51983
upperback -2.62856 3.84925 3.03466
thorax -1.18979 1.73746 -2.1162
lowerneck -18.0593 -4.58965 -6.31583
upperneck 14.6074 -6.03702 7.421
head 7.90656 -2.5311 2.76034
rclavicle -2.60695e-014 3.3048e-014
rhumerus -22.0677 16.2209 -91.0466
rradius 71.6185
rwrist -1.29893
rhand -11.2246 -9.51068
rfingers 7.12502
rthumb 14.8041 -38.9619
lclavicle -2.60695e-014 3.3048e-014
lhumerus -46.4102 -4.34683 88.6805
lradius 55.4868
lwrist -0.881374
lhand -9.99367 3.25652
lfingers 7.12502
lthumb 15.9897 32.6166
rfemur 8.90932 6.45173 34.6488
rtibia 22.1651
rfoot 710.823 -1.71153
rtoes -8.54512
lfemur -45.1116 10.0926 -8.03993
ltibia 49.2488
lfoot 555.807 173.844
ltoes -7.32801
416
root -26.2632 17.8198 3.31439 848.587 -77.3693 -843.577
lowerback -2.5239 3.02634 9.39544
upperback -2.73939 3.7808 2.97579
thorax -1.02498 1.70734 -2.08617
lowerneck -17.8969 -4.51876 -6.24992
upperneck 14.8405 -5.992 7.44867
head 7.95149 -2.5066 2.7675
rclavicle 1.31726e-014 2.63141e-014
rhumerus -23.497 16.3233 -91.2238
rradius 70.9727
rwrist -1.28588
rhand -11.1811 -9.62289
rfingers 7.12502
rthumb 14.846 -39.071
lclavicle 1.31726e-014 2.63141e-014
lhumerus -46.1264 -4.41319 89.3747
lradius 55.9038
lwrist -0.839165
lhand -10.0821 3.18253
lfingers 7.12502
lthumb 15.9046 32.5494
rfemur 8.8766 6.25513 33.9756
rtibia 23.2182
rfoot 711.155 -0.972775
rtoes -9.10134
lfemur -42.1669 9.33966 -7.99585
ltibia 46.7841
lfoot 552.763 173.173
ltoes -7.57467
417
root -26.4738 17.7842 3.34119 850.245 -77.3781 -845.155
lowerback -3.01085 2.99948 9.28313
upperback -2.86599 3.69112 2.92114
thorax -0.895856 1.66414 -2.06204
lowerneck -17.7483 -4.44799 -6.16621
upperneck 15.116 -5.95203 7.46324
head 8.01226 -2.48423 2.76671
rclavicle 3.31691e-014 2.38045e-014
rhumerus -24.9763 16.4338 -91.3893
rradius 70.2802
rwrist -1.28719
rhand -11.1247 -9.72004
rfingers 7.12502
rthumb 14.9004 -39.1641
lclavicle 3.31691e-014 2.38045e-014
lhumerus -45.8261 -4.49414 90.1133
lradius 56.4336
lwrist -0.743417
lhand -10.1616 3.12798
lfingers 7.12502
lthumb 15.8281 32.501
rfemur 8.61521 5.9609 33.2219
rtibia 24.633
rfoot 711.722 -0.0951377
rtoes -9.59061
lfemur -39.3188 8.60402 -8.12733
ltibia 44.4286
lfoot 548.951 172.641
ltoes -7.11582
418
root -26.6826 17.7504 3.37003 851.712 -77.4317 -846.56
lowerback -3.44001 2.93279 9.15145
upperback -3.00747 3.55832 2.86951
thorax -0.820302 1.59711 -2.03043
lowerneck -17.6206 -4.37411 -6.07138
upperneck 15.4374 -5.91402 7.47966
head 8.09191 -2.46131 2.76446
rclavicle -9.24038e-017 -2.08724e-014
rhumerus -26.4974 16.5494 -91.5463
rradius 69.5375
rwrist -1.29306
rhand -11.0454 -9.79751
rfingers 7.12502
rthumb 14.9768 -39.2359
lclavicle -9.24038e-017 -2.08724e-014
lhumerus -45.499 -4.57112 90.8868
lradius 57.0869
lwrist -0.562571
lhand -10.2871 3.06568
lfingers 7.12502
lthumb 15.7072 32.4482
rfemur 8.08582 5.544 32.3707
rtibia 26.4495
rfoot 712.631 0.881822
rtoes -9.88666
lfemur -36.6314 7.93273 -8.46899
ltibia 42.1388
lfoot 544.953 172.569
ltoes -5.78726
